PathFileType	4	(X/Y/Z)	C:\Users\Basilio\Documents\Thesis Gigler\squatting_fais\c3dfiles\038\SLS_back_pre4\markers_experimental.trc
DataRate	CameraRate	NumFrames	NumMarkers	Units	OrigDataRate	OrigDataStartFrame	OrigNumFrames
200.000000	200.000000	4	63	mm	200.000000	495	1982
Frame#	Time	FHD			LBHD			RBHD			C7			T10			CLAV			LSHO			LUUPA			LMUPA			LDUPA			LLEP			LMEP			LRAD			LUL			LRFIN			RSHO			RUPA1			RMUPA			RDUPA			RLEP			RMEP			RRAD			RUL			RUFIN			LASI			RASI			USACR			LSACR			RSACR			LTHI1			LTHI2			LTHI3			LTHI4			LLFC			LMFC			LTIB1			LTIB2			LTIB3			LTIB4			LLMAL			LMMAL			LHEE			LMT1			LMT2			LMT5			RTHI			RTHI2			RTHI3			RTHI4			RLFC			RMFC			RTIB1			RTIB2			RTIB3			RTIB4			RLMAL			RMMAL			RHEE			RMT1			RMT2			RMT5			*61			*62			
		X1	Y1	Z1	X2	Y2	Z2	X3	Y3	Z3	X4	Y4	Z4	X5	Y5	Z5	X6	Y6	Z6	X7	Y7	Z7	X8	Y8	Z8	X9	Y9	Z9	X10	Y10	Z10	X11	Y11	Z11	X12	Y12	Z12	X13	Y13	Z13	X14	Y14	Z14	X15	Y15	Z15	X16	Y16	Z16	X17	Y17	Z17	X18	Y18	Z18	X19	Y19	Z19	X20	Y20	Z20	X21	Y21	Z21	X22	Y22	Z22	X23	Y23	Z23	X24	Y24	Z24	X25	Y25	Z25	X26	Y26	Z26	X27	Y27	Z27	X28	Y28	Z28	X29	Y29	Z29	X30	Y30	Z30	X31	Y31	Z31	X32	Y32	Z32	X33	Y33	Z33	X34	Y34	Z34	X35	Y35	Z35	X36	Y36	Z36	X37	Y37	Z37	X38	Y38	Z38	X39	Y39	Z39	X40	Y40	Z40	X41	Y41	Z41	X42	Y42	Z42	X43	Y43	Z43	X44	Y44	Z44	X45	Y45	Z45	X46	Y46	Z46	X47	Y47	Z47	X48	Y48	Z48	X49	Y49	Z49	X50	Y50	Z50	X51	Y51	Z51	X52	Y52	Z52	X53	Y53	Z53	X54	Y54	Z54	X55	Y55	Z55	X56	Y56	Z56	X57	Y57	Z57	X58	Y58	Z58	X59	Y59	Z59	X60	Y60	Z60	X61	Y61	Z61	X62	Y62	Z62	X63	Y63	Z63	

496	2.475	-225.7132415771485	1768.303833007813	-1042.936279296875	-383.2283325195313	1726.89453125	-1102.62109375	-374.3187866210938	1710.2666015625	-958.6983032226565	-431.8907470703126	1538.195190429688	-1035.404907226563	-410.2807922363282	1256.801879882813	-1028.458129882813	-287.8285827636719	1528.42333984375	-1048.809448242188	-360.0467834472657	1567.431640625	-1186.218139648438	-201.8449249267579	1504.723876953125	-1323.11279296875	-173.5518646240235	1539.777099609375	-1299.776611328125	-133.7427520751953	1513.185668945313	-1335.405883789063	-71.29741668701173	1516.391967773438	-1339.494262695313	-59.39328002929689	1442.865600585938	-1313.899780273438	212.9427795410157	1524.239990234375	-1231.457275390625	223.6570587158204	1530.247924804688	-1303.009033203125	285.7648315429688	1558.249633789063	-1214.99462890625	-339.2983398437501	1557.22216796875	-905.1540527343752	-178.2238922119141	1535.556518554688	-792.1618652343752	-144.2583618164063	1546.664916992188	-825.2702636718752	-109.5783920288086	1533.653198242188	-777.1514282226565	-36.03110122680665	1533.820678710938	-769.778991699219	-27.39222526550294	1455.808715820313	-786.8280029296877	235.7999877929688	1544.164184570313	-867.9199829101565	250.5706024169922	1554.4306640625	-799.7192382812502	313.5543823242188	1582.287231445313	-875.3787841796877	-230.3111114501954	1066.23828125	-1132.263305664063	-246.4923553466797	1092.13916015625	-881.9549560546877	-408.0069580078126	1123.286499023438	-1019.133911132813	-419.6733398437501	1092.045043945313	-1045.394897460938	-420.407928466797	1095.185180664063	-988.6226196289065	-269.6205139160157	742.3590698242189	-1158.98779296875	-242.1327056884766	663.1934814453126	-1143.434692382813	-197.1102600097657	668.5115356445314	-1119.951293945313	-272.2668457031251	616.0342407226564	-1122.576904296875	-271.1476440429688	554.2886352539064	-1110.177856445313	-268.8922424316407	554.6028442382814	-989.1499023437502	-256.8138122558594	368.5374755859376	-1023.664123535156	-299.8610229492188	325.4145202636719	-1087.968017578125	-264.5427856445313	319.9616088867188	-1056.178833007813	-287.1606445312501	244.7292785644532	-1023.239196777344	-381.4064331054688	119.378288269043	-1036.898315429688	-343.0686035156251	134.4167938232422	-965.9980468750002	-432.4899291992189	100.957878112793	-981.5419921875002	-234.1786041259766	46.19846343994141	-975.772644042969	-225.6458129882813	45.29932022094727	-1025.723754882813	-271.1921081542969	35.24069595336915	-1072.439575195313	-264.8340759277344	820.1912841796877	-808.339294433594	-223.8287963867188	767.7899780273439	-798.5388183593752	-191.006576538086	770.8650512695315	-803.904968261719	-246.1927032470704	684.7343139648439	-804.981872558594	-238.3950653076172	579.4461059570314	-815.5383300781252	-235.142562866211	565.9611206054689	-926.564880371094	-350.4965515136719	448.851043701172	-836.2041625976565	-461.650604248047	480.0171813964845	-820.6557617187502	-434.8146972656251	440.9725952148439	-820.4282836914065	-469.9673767089845	402.4338684082032	-850.0102539062502	-607.9237060546876	401.3688964843751	-838.2271118164065	-577.4446411132814	368.6988830566407	-909.7567138671877	-660.0058593750001	426.8711853027345	-916.1103515625002	-590.0770263671876	227.5852661132813	-870.0756835937502	-595.8104248046876	234.4851379394532	-823.6202392578127	-638.2994995117189	269.7933044433594	-792.0867919921877	nan	nan	nan	nan	nan	nan	
497	2.48	-225.5437622070313	1768.250854492188	-1042.9765625	-383.1306457519532	1726.926391601563	-1102.672241210938	-374.1329650878907	1710.33203125	-958.7300415039065	-431.7916259765626	1538.207641601563	-1035.48681640625	-410.1741638183595	1256.936401367188	-1028.525390625	-287.7259216308594	1528.420043945313	-1048.845703125	-359.9225158691407	1567.452758789063	-1186.290283203125	-201.7504577636719	1504.654663085938	-1323.148803710938	-173.447982788086	1539.714233398438	-1299.820678710938	-133.4900207519532	1513.130249023438	-1335.4775390625	-71.15477752685548	1516.35791015625	-1339.4619140625	-59.22056198120119	1442.719482421875	-1313.930297851563	213.0565643310547	1524.084228515625	-1231.35400390625	223.774398803711	1530.110961914063	-1302.947021484375	286.0090942382813	1558.058959960938	-1214.971435546875	-339.2148132324219	1557.194458007813	-905.2115478515627	-178.1049346923828	1535.521850585938	-792.239440917969	-144.2176361083985	1546.65087890625	-825.3487548828127	-109.5570068359375	1533.521850585938	-777.239196777344	-35.98189163208009	1533.67236328125	-769.8336181640627	-27.35086250305176	1455.757080078125	-786.8577270507815	235.8709564208985	1543.982543945313	-868.0240478515627	250.6301879882813	1554.26953125	-799.7478027343752	313.6298828125001	1581.9970703125	-875.5017089843752	-230.1549987792969	1066.299438476563	-1132.271118164063	-246.6524047851563	1092.141845703125	-881.9477539062502	-407.9441223144532	1123.268432617188	-1019.363830566406	-419.6466674804689	1092.081420898438	-1045.559692382813	-420.4200744628907	1095.208374023438	-988.7100219726565	-269.5337219238282	742.4003906250001	-1158.966430664063	-242.0416107177735	663.1792602539064	-1143.372680664063	-197.0472717285157	668.4475708007814	-1119.917846679688	-272.1662902832032	616.0581054687501	-1122.586059570313	-270.8996887207032	554.6210937500001	-1110.009399414063	-268.9486389160157	554.6768188476564	-989.138122558594	-256.8564758300782	368.6329040527344	-1023.551452636719	-299.7772827148438	325.4333496093751	-1087.934204101563	-264.5796813964844	319.9274902343751	-1056.018920898438	-287.2029418945313	244.6420593261719	-1023.053283691406	-381.3673095703126	119.3684463500977	-1036.910034179688	-343.4788818359376	134.0733947753907	-966.1858520507815	-432.4571228027345	100.88525390625	-981.5397949218752	-234.1694335937501	46.04550933837891	-975.8222656250002	-225.6607055664063	45.29738235473634	-1025.7236328125	-271.1624145507813	35.2721176147461	-1072.497680664063	-265.1083679199219	820.0999145507815	-808.348815917969	-224.2432861328126	767.6801757812501	-798.6238403320315	-191.3933563232422	770.7634887695315	-803.8096923828127	-246.6743469238282	684.7237548828126	-804.9228515625002	-239.0069427490235	579.5330200195314	-815.4160156250002	-235.5156555175782	565.9717407226564	-926.5803833007815	-351.2375183105469	449.0345764160157	-836.230163574219	-462.3467712402345	480.6368408203126	-820.7619628906252	-435.7325439453126	441.3245849609376	-820.537048339844	-470.7586669921876	403.3803710937501	-850.0780029296877	-608.9384155273439	402.2318420410157	-838.686462402344	-578.4998168945314	369.7341918945313	-910.1040039062502	-660.5947265625001	428.2590637207032	-916.5883789062502	-591.8200683593751	228.6441345214844	-870.5383911132815	-597.6342773437501	235.4800262451172	-823.9976806640627	-639.5679931640626	271.1932983398438	-792.348083496094	nan	nan	nan	nan	nan	nan	
498	2.485	-225.3931579589844	1768.16259765625	-1043.01220703125	-383.0229492187501	1727.00927734375	-1102.731811523438	-373.9806213378907	1710.35791015625	-958.7412719726565	-431.7438964843751	1538.244018554688	-1035.566528320313	-410.1977844238282	1256.876708984375	-1028.6142578125	-287.6331176757813	1528.4248046875	-1048.947875976563	-359.7886047363282	1567.44970703125	-1186.35595703125	-201.6062622070313	1504.72900390625	-1323.177856445313	-173.2530822753907	1539.739135742188	-1299.82470703125	-133.4004364013672	1513.085205078125	-1335.492797851563	-71.02732086181642	1516.332763671875	-1339.447875976563	-59.1053810119629	1442.657104492188	-1313.926879882813	213.2402496337891	1523.837158203125	-1231.272583007813	223.8388214111329	1529.94482421875	-1302.890380859375	286.2144775390626	1557.796752929688	-1214.874755859375	-339.1839294433594	1557.178100585938	-905.2525634765627	-178.0334625244141	1535.520874023438	-792.302185058594	-144.1588287353516	1546.613159179688	-825.3884887695315	-109.4349899291992	1533.513549804688	-777.2930908203127	-35.89610671997071	1533.574096679688	-769.8706665039065	-27.34775924682618	1455.636474609375	-786.9255371093752	235.988754272461	1543.798950195313	-868.1519775390627	250.6494293212891	1553.994140625	-799.8872070312502	313.7221374511719	1581.69140625	-875.5684814453127	-230.132308959961	1066.322021484375	-1132.295776367188	-246.7708892822266	1092.114013671875	-881.9873046875002	-407.9284667968751	1122.936889648438	-1019.473205566406	-419.1234130859376	1092.02099609375	-1045.539428710938	-420.4328613281251	1095.245361328125	-988.8668212890627	-269.4694824218751	742.3837280273439	-1158.998779296875	-241.9307403564454	663.2014770507814	-1143.318969726563	-196.929428100586	668.3766479492189	-1119.816162109375	-272.1429443359376	616.0744628906251	-1122.567993164063	-270.8721008300782	554.6057739257814	-1110.00390625	-269.0887145996094	554.7303466796876	-989.0718994140627	-256.9523925781251	368.6611938476563	-1023.409057617188	-299.7486267089844	325.4844360351563	-1087.900024414063	-264.5428466796876	319.9586791992188	-1055.933349609375	-287.3406066894532	244.4453125000001	-1022.520263671875	-381.5709228515626	119.0708160400391	-1036.941162109375	-343.1379089355469	134.4023590087891	-965.9274902343752	-432.5247802734376	100.9860305786133	-981.5401000976565	-234.1747741699219	46.06674194335938	-975.8067626953127	-225.6565246582032	45.27599716186524	-1025.725952148438	-271.1640014648438	35.34151077270509	-1072.486083984375	-265.4710388183594	820.1023559570315	-808.3194580078127	-224.6688690185547	767.5665283203126	-798.6829833984377	-191.7517547607422	770.597839355469	-803.627380371094	-247.1499786376954	684.6791992187501	-804.7728271484377	-239.3620910644532	579.8302612304689	-815.2891235351565	-235.9071197509766	565.9957275390626	-926.6372070312502	-351.9737854003907	449.3469238281251	-836.278259277344	-462.775115966797	481.3208007812501	-820.8273925781252	-436.4533081054689	441.8035278320314	-820.697692871094	-471.5874938964845	403.8242492675782	-850.2944335937502	-609.6248779296876	403.5757446289064	-838.7689208984377	-579.3803710937501	370.7313537597657	-910.2634887695315	-661.1785888671876	429.6384887695314	-916.8779907226565	-593.5396728515626	229.4561767578126	-870.8081054687502	-599.2768554687501	236.3812561035157	-824.5737915039065	-641.1649780273439	272.2998046875001	-792.7434692382815	nan	nan	nan	nan	nan	nan	
499	2.49	-225.2845916748047	1768.17138671875	-1043.171508789063	-382.8923034667969	1726.974609375	-1102.796508789063	-373.8893127441407	1710.377685546875	-958.7893066406252	-431.7096252441407	1538.271606445313	-1035.652221679688	-410.242401123047	1256.865966796875	-1028.750122070313	-287.5199584960938	1528.421997070313	-1048.979736328125	-359.6900024414063	1567.455810546875	-1186.391723632813	-201.4086608886719	1504.708984375	-1323.214233398438	-173.0012664794922	1539.747802734375	-1299.87841796875	-133.2302398681641	1513.069213867188	-1335.520141601563	-70.84136962890626	1516.29931640625	-1339.423095703125	-58.9472999572754	1442.638793945313	-1313.921630859375	213.3438568115235	1523.69482421875	-1231.211181640625	223.9326477050782	1529.833618164063	-1302.819091796875	286.4456787109376	1557.53076171875	-1214.802490234375	-339.1239318847657	1557.183959960938	-905.3233032226565	-177.9579620361328	1535.484252929688	-792.3439941406252	-144.1615447998047	1546.4990234375	-825.4902954101565	-109.3936309814453	1533.336181640625	-777.3701171875002	-35.80961990356446	1533.473999023438	-769.9650878906252	-27.26101303100587	1455.570068359375	-787.005798339844	236.0075073242188	1543.565551757813	-868.2501220703127	250.439193725586	1553.484741210938	-800.1333007812502	313.7624511718751	1581.326416015625	-875.5953369140627	-229.9779815673829	1066.354736328125	-1132.363647460938	-246.866683959961	1092.108520507813	-882.003601074219	-407.9342651367189	1122.956298828125	-1019.595397949219	-419.0396118164064	1092.0283203125	-1045.718505859375	-420.3485107421876	1095.249877929688	-989.0043945312502	-269.3974304199219	742.0878295898439	-1159.01171875	-241.8360748291016	663.2495727539064	-1143.356079101563	-196.9336853027344	668.3996582031251	-1119.770751953125	-272.0264587402344	616.0278320312501	-1122.509033203125	-270.8348083496094	554.6361083984376	-1110.001831054688	-269.1645812988282	554.7827758789064	-989.0955200195315	-256.9682617187501	368.7384033203126	-1023.277770996094	-299.6983947753907	325.4614868164063	-1087.837890625	-264.6350708007813	320.0449218750001	-1055.85595703125	-287.3653564453126	244.5208587646485	-1022.454833984375	-381.3530273437501	119.3886489868164	-1036.845947265625	-343.1825866699219	134.3638763427735	-965.8834228515627	-432.467254638672	100.9337539672852	-981.5478515625002	-234.1477813720704	46.03193283081055	-975.7961425781252	-225.6472930908204	45.31986618041993	-1025.710083007813	-271.1775512695313	35.34166717529298	-1072.467529296875	-265.8047180175782	820.0606689453127	-808.2666625976565	-224.977523803711	767.3860473632814	-798.5642700195315	-191.96630859375	770.5828247070315	-803.5720825195315	-247.5965423583985	684.5984497070314	-804.7352294921877	-239.9134063720704	579.5582885742189	-815.2858886718752	-236.2679138183594	565.9705200195314	-926.5884399414065	-352.5340270996094	449.6461791992189	-836.5222167968752	-463.4145812988282	481.8811645507814	-821.0260009765627	-437.0824584960939	442.2972106933595	-820.8023071289065	-472.3789978027345	404.4403381347657	-850.5657348632815	-610.3273315429689	404.5623779296876	-839.065124511719	-580.1641235351564	371.7819213867188	-910.680358886719	-661.6044311523439	430.896453857422	-917.140808105469	-595.7958984375001	230.0054779052735	-871.3999633789065	-601.1835937500001	237.3105773925782	-824.674743652344	-642.8822631835939	273.5411376953126	-793.1154785156252	nan	nan	nan	nan	nan	nan	
